<svg width="25" height="25" viewBox="0 0 25 25" fill="none" xmlns="http://www.w3.org/2000/svg">
<path d="M12.481 0C19.3248 0 24.9785 5.61271 24.9785 12.3894C24.9692 19.5634 19.5691 25.0026 12.4623 24.9839C5.35547 24.9653 -0.0352671 19.472 0.00017374 12.3241C0.031884 5.5866 5.69123 0 12.481 0ZM12.4623 21.867C17.59 21.8819 21.7888 17.7838 21.8056 12.755C21.8205 7.25232 17.9183 3.21393 12.5668 3.19527C7.21519 3.17662 3.1656 7.20382 3.15255 12.5106C3.14615 13.7373 3.38232 14.9532 3.84745 16.0884C4.31259 17.2235 4.99752 18.2555 5.86287 19.125C6.72822 19.9945 7.75691 20.6844 8.8898 21.1549C10.0227 21.6255 11.2374 21.8675 12.4642 21.867H12.4623Z" fill="#FF718B"/>
<path d="M15.3553 17.0042C14.4935 16.9184 13.8891 16.7338 13.3314 16.8289C12.462 16.9526 11.617 17.2099 10.8263 17.5918C9.7724 18.1421 8.88825 18.1514 8.36036 17.3624C7.80077 16.5211 8.07497 15.609 9.11768 14.9505C11.1322 13.6803 13.2904 13.2606 15.6052 13.9321C16.523 14.1969 16.937 14.8927 16.7766 15.7638C16.7293 16.1073 16.5594 16.4221 16.2982 16.6501C16.0369 16.8781 15.702 17.0039 15.3553 17.0042Z" fill="#FF718B"/>
<path d="M9.3289 7.83818C9.75066 7.83505 10.1569 7.99701 10.4609 8.28945C10.7648 8.58188 10.9423 8.9816 10.9554 9.40317C10.9292 9.80774 10.7588 10.1895 10.475 10.4791C10.1913 10.7686 9.81306 10.9468 9.4091 10.9812C9.00414 10.9765 8.61584 10.8193 8.32163 10.541C8.02742 10.2627 7.84892 9.88373 7.82173 9.47965C7.80419 9.27097 7.83012 9.06092 7.89787 8.86277C7.96562 8.66462 8.07373 8.48267 8.21536 8.32842C8.35699 8.17416 8.52908 8.05095 8.72074 7.96657C8.9124 7.88219 9.11948 7.83848 9.3289 7.83818Z" fill="#FF718B"/>
<path d="M15.5664 10.9646C15.1442 10.9525 14.7433 10.7762 14.4489 10.4731C14.1546 10.1701 13.9901 9.76424 13.9902 9.3418C14.0252 8.93863 14.2069 8.5623 14.5008 8.28416C14.7948 8.00602 15.1806 7.84541 15.5851 7.83276C15.7948 7.83262 16.0024 7.87479 16.1955 7.95675C16.3886 8.0387 16.5631 8.15877 16.7087 8.30975C16.8543 8.46073 16.9679 8.63954 17.0428 8.83546C17.1177 9.03138 17.1522 9.24039 17.1445 9.44999C17.1276 9.85726 16.954 10.2423 16.6599 10.5245C16.3658 10.8068 15.974 10.9645 15.5664 10.9646Z" fill="#FF718B"/>
</svg>
