<svg width="25" height="25" viewBox="0 0 25 25" fill="none" xmlns="http://www.w3.org/2000/svg">
<path d="M0 12.3576C0 5.59033 5.67425 -0.00931488 12.5255 1.16336e-05C19.3115 1.16336e-05 24.9652 5.62017 24.9764 12.3558C24.9895 19.5074 19.567 24.9802 12.4789 24.9839C5.39073 24.9876 0 19.5391 0 12.3576ZM12.4509 21.8707C17.5133 21.8968 21.7961 17.7764 21.824 12.8557C21.8539 7.32692 17.9181 3.22139 12.5647 3.19901C7.25043 3.17662 3.28293 7.15158 3.14677 12.4155C3.02179 17.2709 7.14411 21.9621 12.4509 21.867V21.8707Z" fill="#FFEB3A"/>
<path d="M12.4176 17.351C11.0522 17.351 9.68684 17.3659 8.3233 17.351C7.26381 17.3361 6.64453 16.7373 6.64453 15.7841C6.64453 14.831 7.2806 14.2024 8.3233 14.1949C11.1138 14.1762 13.9049 14.1762 16.6966 14.1949C17.7356 14.1949 18.3213 14.8347 18.3064 15.8177C18.2934 16.7597 17.7282 17.3286 16.7078 17.3473C15.2697 17.3771 13.8427 17.351 12.4176 17.351Z" fill="#FFEB3A"/>
<path d="M9.23631 10.9829C8.83054 10.9767 8.44195 10.8181 8.14783 10.5385C7.85371 10.2588 7.6756 9.87878 7.64894 9.47384C7.63303 9.26532 7.66031 9.05576 7.72908 8.85827C7.79785 8.66077 7.90663 8.47959 8.04862 8.32605C8.1906 8.17251 8.36274 8.04991 8.55426 7.96593C8.74578 7.88195 8.95257 7.83839 9.1617 7.83797C9.56759 7.83393 9.95986 7.98427 10.2591 8.25856C10.5583 8.53284 10.7421 8.91058 10.7733 9.31529C10.7773 9.7366 10.6205 10.1436 10.335 10.4534C10.0494 10.7632 9.65654 10.9525 9.23631 10.9829Z" fill="#FFEB3A"/>
<path d="M15.3742 7.83805C15.5762 7.82804 15.7783 7.85832 15.9686 7.92713C16.1589 7.99594 16.3335 8.10191 16.4825 8.23887C16.6314 8.37583 16.7516 8.54104 16.8361 8.72489C16.9206 8.90874 16.9677 9.10756 16.9746 9.30978C16.9895 9.73333 16.8383 10.1459 16.5532 10.4596C16.2681 10.7732 15.8718 10.963 15.4488 10.9885C14.628 11.0091 13.8129 10.2126 13.8204 9.39185C13.8403 8.98618 14.0103 8.60242 14.2975 8.31522C14.5847 8.02803 14.9685 7.85794 15.3742 7.83805Z" fill="#FFEB3A"/>
</svg>
