<svg width="25" height="25" viewBox="0 0 25 25" fill="none" xmlns="http://www.w3.org/2000/svg">
<path d="M12.4546 24.9838C5.3273 24.9745 -0.0111742 19.5595 1.75644e-05 12.352C0.0112093 5.63693 5.69104 0 12.4658 0C19.2704 0 24.995 5.66117 24.9782 12.4079C24.9689 19.5949 19.5856 24.995 12.4546 24.9838ZM3.17102 12.656C3.03485 16.8604 6.44275 21.9172 12.477 21.9266C18.1997 21.9266 21.8035 17.2932 21.8203 12.671C21.837 7.28212 17.7427 3.15795 12.4434 3.18966C7.1441 3.22137 3.17102 7.27465 3.17102 12.656Z" fill="#7FE47E"/>
<path d="M12.4353 19.0112C10.1018 19.0112 8.09848 17.6402 7.32625 15.5287C6.95319 14.5121 7.28335 13.5627 8.11527 13.2549C9.01248 12.9229 9.83694 13.3276 10.2473 14.3573C10.6577 15.3869 11.415 15.8495 12.467 15.8719C13.519 15.8943 14.2838 15.3366 14.7259 14.3797C15.2202 13.3071 16.0316 12.8874 16.9195 13.2791C17.7402 13.6392 18.0032 14.5457 17.591 15.5958C16.7591 17.7204 14.8117 19.0261 12.4353 19.0112Z" fill="#7FE47E"/>
<path d="M10.7792 9.43283C10.7798 9.8369 10.6254 10.2258 10.3478 10.5194C10.0701 10.813 9.69045 10.9889 9.28698 11.0109C9.07835 11.0279 8.86847 11.0015 8.67053 10.9334C8.4726 10.8653 8.29091 10.757 8.1369 10.6152C7.98288 10.4735 7.85988 10.3014 7.77563 10.1098C7.69139 9.91814 7.64772 9.71116 7.64738 9.50185C7.63486 9.3012 7.66369 9.10013 7.73207 8.91108C7.80045 8.72204 7.90694 8.54905 8.04492 8.40285C8.1829 8.25665 8.34944 8.14035 8.53422 8.06115C8.71899 7.98196 8.91807 7.94156 9.1191 7.94246C10.0723 7.90888 10.755 8.53003 10.7792 9.43283Z" fill="#7FE47E"/>
<path d="M16.9743 9.47019C16.977 9.67909 16.9365 9.8863 16.8555 10.0789C16.7745 10.2714 16.6545 10.4452 16.5033 10.5893C16.352 10.7334 16.1726 10.8447 15.9764 10.9163C15.7801 10.9879 15.5712 11.0182 15.3626 11.0053C14.9584 10.9867 14.5756 10.8179 14.2892 10.5319C14.0028 10.2459 13.8335 9.86328 13.8145 9.459C13.8182 9.24997 13.864 9.04384 13.9491 8.85291C14.0343 8.66197 14.157 8.49017 14.3101 8.34774C14.4631 8.20532 14.6433 8.09521 14.8399 8.02398C15.0364 7.95275 15.2453 7.92187 15.454 7.93319C15.6566 7.92768 15.8582 7.9638 16.0462 8.03931C16.2342 8.11483 16.4048 8.22812 16.5473 8.3722C16.6898 8.51627 16.8012 8.68805 16.8746 8.87691C16.9481 9.06578 16.982 9.2677 16.9743 9.47019Z" fill="#7FE47E"/>
</svg>
